<mxfile host="app.diagrams.net" modified="2021-09-28T15:15:09.799Z" agent="5.0 (Windows NT 10.0; Win64; x64) AppleWebKit/537.36 (KHTML, like Gecko) Chrome/94.0.4606.61 Safari/537.36 Edg/94.0.992.31" etag="BwcJeHQ_ukLYDeh-2iZt" version="15.3.7" type="github">
  <diagram id="OpJN6eBW9aZbd_widYFl" name="Page-1">
    <mxGraphModel dx="2003" dy="811" grid="1" gridSize="10" guides="1" tooltips="1" connect="1" arrows="1" fold="1" page="1" pageScale="1" pageWidth="827" pageHeight="1169" math="0" shadow="0">
      <root>
        <mxCell id="0" />
        <mxCell id="1" parent="0" />
        <mxCell id="7QEbIwmtzFfhTlJ7Jh2c-23" style="edgeStyle=orthogonalEdgeStyle;rounded=0;orthogonalLoop=1;jettySize=auto;html=1;entryX=0.5;entryY=1;entryDx=0;entryDy=0;startArrow=none;startFill=0;" edge="1" parent="1" source="YdVehg9gXkAnftPKYYEg-2" target="YdVehg9gXkAnftPKYYEg-8">
          <mxGeometry relative="1" as="geometry">
            <Array as="points">
              <mxPoint x="235" y="170" />
              <mxPoint x="160" y="170" />
            </Array>
          </mxGeometry>
        </mxCell>
        <mxCell id="7QEbIwmtzFfhTlJ7Jh2c-24" style="edgeStyle=orthogonalEdgeStyle;rounded=0;orthogonalLoop=1;jettySize=auto;html=1;entryX=0.5;entryY=1;entryDx=0;entryDy=0;startArrow=none;startFill=0;" edge="1" parent="1" source="YdVehg9gXkAnftPKYYEg-2" target="YdVehg9gXkAnftPKYYEg-7">
          <mxGeometry relative="1" as="geometry">
            <Array as="points">
              <mxPoint x="235" y="170" />
              <mxPoint y="170" />
            </Array>
          </mxGeometry>
        </mxCell>
        <mxCell id="7QEbIwmtzFfhTlJ7Jh2c-25" style="edgeStyle=orthogonalEdgeStyle;rounded=0;orthogonalLoop=1;jettySize=auto;html=1;entryX=0.5;entryY=1;entryDx=0;entryDy=0;startArrow=none;startFill=0;" edge="1" parent="1" source="YdVehg9gXkAnftPKYYEg-2" target="YdVehg9gXkAnftPKYYEg-6">
          <mxGeometry relative="1" as="geometry">
            <Array as="points">
              <mxPoint x="235" y="170" />
              <mxPoint x="-160" y="170" />
            </Array>
          </mxGeometry>
        </mxCell>
        <mxCell id="YdVehg9gXkAnftPKYYEg-2" value="Robot controller" style="rounded=0;whiteSpace=wrap;html=1;" parent="1" vertex="1">
          <mxGeometry x="170" y="240" width="130" height="60" as="geometry" />
        </mxCell>
        <mxCell id="7QEbIwmtzFfhTlJ7Jh2c-45" value="&lt;i&gt;do_chuck_swap&lt;/i&gt;" style="edgeStyle=orthogonalEdgeStyle;rounded=0;orthogonalLoop=1;jettySize=auto;html=1;startArrow=none;startFill=0;" edge="1" parent="1" source="YdVehg9gXkAnftPKYYEg-3" target="YdVehg9gXkAnftPKYYEg-10">
          <mxGeometry x="0.7647" relative="1" as="geometry">
            <mxPoint y="-1" as="offset" />
          </mxGeometry>
        </mxCell>
        <mxCell id="7QEbIwmtzFfhTlJ7Jh2c-46" value="&lt;i&gt;do_chuck_swap&lt;/i&gt;" style="edgeStyle=orthogonalEdgeStyle;rounded=0;orthogonalLoop=1;jettySize=auto;html=1;entryX=0.5;entryY=1;entryDx=0;entryDy=0;startArrow=none;startFill=0;" edge="1" parent="1" source="YdVehg9gXkAnftPKYYEg-3" target="YdVehg9gXkAnftPKYYEg-9">
          <mxGeometry x="0.759" relative="1" as="geometry">
            <mxPoint as="offset" />
          </mxGeometry>
        </mxCell>
        <mxCell id="YdVehg9gXkAnftPKYYEg-3" value="Chuck controller" style="rounded=0;whiteSpace=wrap;html=1;" parent="1" vertex="1">
          <mxGeometry x="480" y="240" width="130" height="60" as="geometry" />
        </mxCell>
        <mxCell id="YdVehg9gXkAnftPKYYEg-4" value="&lt;div&gt;Sluice controller&lt;/div&gt;" style="rounded=0;whiteSpace=wrap;html=1;" parent="1" vertex="1">
          <mxGeometry x="170" y="430" width="130" height="60" as="geometry" />
        </mxCell>
        <mxCell id="7QEbIwmtzFfhTlJ7Jh2c-43" value="&lt;i&gt;start_lithography&lt;/i&gt;" style="edgeStyle=orthogonalEdgeStyle;rounded=0;orthogonalLoop=1;jettySize=auto;html=1;startArrow=none;startFill=0;" edge="1" parent="1" source="YdVehg9gXkAnftPKYYEg-5" target="YdVehg9gXkAnftPKYYEg-11">
          <mxGeometry relative="1" as="geometry" />
        </mxCell>
        <mxCell id="YdVehg9gXkAnftPKYYEg-5" value="Lithography controller" style="rounded=0;whiteSpace=wrap;html=1;" parent="1" vertex="1">
          <mxGeometry x="480" y="430" width="130" height="60" as="geometry" />
        </mxCell>
        <mxCell id="YdVehg9gXkAnftPKYYEg-6" value="Robot 1" style="rounded=0;whiteSpace=wrap;html=1;" parent="1" vertex="1">
          <mxGeometry x="-220" y="80" width="120" height="60" as="geometry" />
        </mxCell>
        <mxCell id="YdVehg9gXkAnftPKYYEg-7" value="Robot 2" style="rounded=0;whiteSpace=wrap;html=1;" parent="1" vertex="1">
          <mxGeometry x="-60" y="80" width="120" height="60" as="geometry" />
        </mxCell>
        <mxCell id="YdVehg9gXkAnftPKYYEg-8" value="Robot 3" style="rounded=0;whiteSpace=wrap;html=1;" parent="1" vertex="1">
          <mxGeometry x="100" y="80" width="120" height="60" as="geometry" />
        </mxCell>
        <mxCell id="YdVehg9gXkAnftPKYYEg-9" value="Chuck 1" style="rounded=0;whiteSpace=wrap;html=1;" parent="1" vertex="1">
          <mxGeometry x="414" y="80" width="130" height="60" as="geometry" />
        </mxCell>
        <mxCell id="YdVehg9gXkAnftPKYYEg-10" value="&lt;div&gt;Chuck 2&lt;/div&gt;" style="rounded=0;whiteSpace=wrap;html=1;" parent="1" vertex="1">
          <mxGeometry x="550" y="80" width="130" height="60" as="geometry" />
        </mxCell>
        <mxCell id="YdVehg9gXkAnftPKYYEg-11" value="Lithography laser" style="rounded=0;whiteSpace=wrap;html=1;" parent="1" vertex="1">
          <mxGeometry x="707" y="430" width="120" height="60" as="geometry" />
        </mxCell>
        <mxCell id="7QEbIwmtzFfhTlJ7Jh2c-4" style="edgeStyle=orthogonalEdgeStyle;rounded=0;orthogonalLoop=1;jettySize=auto;html=1;entryX=0.5;entryY=0;entryDx=0;entryDy=0;startArrow=classic;startFill=1;" edge="1" parent="1" target="YdVehg9gXkAnftPKYYEg-17">
          <mxGeometry relative="1" as="geometry">
            <mxPoint x="170" y="460" as="sourcePoint" />
          </mxGeometry>
        </mxCell>
        <mxCell id="7QEbIwmtzFfhTlJ7Jh2c-37" style="edgeStyle=orthogonalEdgeStyle;rounded=0;orthogonalLoop=1;jettySize=auto;html=1;startArrow=classic;startFill=1;" edge="1" parent="1" source="YdVehg9gXkAnftPKYYEg-13">
          <mxGeometry relative="1" as="geometry">
            <mxPoint x="230" y="490" as="targetPoint" />
            <Array as="points">
              <mxPoint x="130" y="550" />
              <mxPoint x="230" y="550" />
            </Array>
          </mxGeometry>
        </mxCell>
        <mxCell id="7QEbIwmtzFfhTlJ7Jh2c-38" value="&lt;i style=&quot;font-size: 12px ; font-family: &amp;#34;helvetica&amp;#34; ; background-color: rgb(248 , 249 , 250)&quot;&gt;sluice_vacuum_status(s,pl)&lt;/i&gt;" style="edgeLabel;html=1;align=center;verticalAlign=middle;resizable=0;points=[];" vertex="1" connectable="0" parent="7QEbIwmtzFfhTlJ7Jh2c-37">
          <mxGeometry x="-0.5695" y="-5" relative="1" as="geometry">
            <mxPoint x="-45" y="27" as="offset" />
          </mxGeometry>
        </mxCell>
        <mxCell id="YdVehg9gXkAnftPKYYEg-13" value="Vacuum pump sluice 2" style="rounded=0;whiteSpace=wrap;html=1;" parent="1" vertex="1">
          <mxGeometry x="80" y="610" width="130" height="60" as="geometry" />
        </mxCell>
        <mxCell id="7QEbIwmtzFfhTlJ7Jh2c-35" value="&lt;i&gt;control_vacuum_sluice(s,pl)&lt;/i&gt;" style="edgeStyle=orthogonalEdgeStyle;rounded=0;orthogonalLoop=1;jettySize=auto;html=1;startArrow=classic;startFill=1;" edge="1" parent="1" source="YdVehg9gXkAnftPKYYEg-14">
          <mxGeometry x="0.75" relative="1" as="geometry">
            <mxPoint x="230" y="490" as="targetPoint" />
            <Array as="points">
              <mxPoint x="270" y="550" />
              <mxPoint x="230" y="550" />
            </Array>
            <mxPoint as="offset" />
          </mxGeometry>
        </mxCell>
        <mxCell id="7QEbIwmtzFfhTlJ7Jh2c-36" value="&lt;i style=&quot;font-size: 12px ; background-color: rgb(248 , 249 , 250)&quot;&gt;sluice_vacuum_status(s,pl)&lt;/i&gt;" style="edgeLabel;html=1;align=center;verticalAlign=middle;resizable=0;points=[];" vertex="1" connectable="0" parent="7QEbIwmtzFfhTlJ7Jh2c-35">
          <mxGeometry x="-0.3043" y="-2" relative="1" as="geometry">
            <mxPoint x="58" y="35" as="offset" />
          </mxGeometry>
        </mxCell>
        <mxCell id="YdVehg9gXkAnftPKYYEg-14" value="Vacuum pump sluice 1" style="rounded=0;whiteSpace=wrap;html=1;" parent="1" vertex="1">
          <mxGeometry x="220" y="610" width="130" height="60" as="geometry" />
        </mxCell>
        <mxCell id="YdVehg9gXkAnftPKYYEg-17" value="Door 1" style="rounded=0;whiteSpace=wrap;html=1;" parent="1" vertex="1">
          <mxGeometry x="-270" y="530" width="130" height="60" as="geometry" />
        </mxCell>
        <mxCell id="YdVehg9gXkAnftPKYYEg-23" value="&lt;i&gt;open_door(d&lt;/i&gt;)" style="text;html=1;align=center;verticalAlign=middle;resizable=0;points=[];autosize=1;strokeColor=none;fillColor=none;" parent="1" vertex="1">
          <mxGeometry x="70" y="420" width="90" height="20" as="geometry" />
        </mxCell>
        <mxCell id="YdVehg9gXkAnftPKYYEg-30" value="" style="endArrow=classic;startArrow=classic;html=1;entryX=0;entryY=0.5;entryDx=0;entryDy=0;exitX=1;exitY=0.5;exitDx=0;exitDy=0;" parent="1" source="YdVehg9gXkAnftPKYYEg-2" target="YdVehg9gXkAnftPKYYEg-3" edge="1">
          <mxGeometry width="50" height="50" relative="1" as="geometry">
            <mxPoint x="210" y="380" as="sourcePoint" />
            <mxPoint x="260" y="330" as="targetPoint" />
          </mxGeometry>
        </mxCell>
        <mxCell id="YdVehg9gXkAnftPKYYEg-31" value="" style="endArrow=classic;startArrow=classic;html=1;entryX=0.5;entryY=0;entryDx=0;entryDy=0;exitX=0.5;exitY=1;exitDx=0;exitDy=0;" parent="1" source="YdVehg9gXkAnftPKYYEg-2" target="YdVehg9gXkAnftPKYYEg-4" edge="1">
          <mxGeometry width="50" height="50" relative="1" as="geometry">
            <mxPoint x="310" y="280" as="sourcePoint" />
            <mxPoint x="380" y="280" as="targetPoint" />
          </mxGeometry>
        </mxCell>
        <mxCell id="YdVehg9gXkAnftPKYYEg-33" value="" style="endArrow=classic;startArrow=classic;html=1;entryX=0.5;entryY=1;entryDx=0;entryDy=0;exitX=0.5;exitY=0;exitDx=0;exitDy=0;" parent="1" source="YdVehg9gXkAnftPKYYEg-5" target="YdVehg9gXkAnftPKYYEg-3" edge="1">
          <mxGeometry width="50" height="50" relative="1" as="geometry">
            <mxPoint x="490" y="390" as="sourcePoint" />
            <mxPoint x="420" y="390" as="targetPoint" />
          </mxGeometry>
        </mxCell>
        <mxCell id="7QEbIwmtzFfhTlJ7Jh2c-1" style="edgeStyle=orthogonalEdgeStyle;rounded=0;orthogonalLoop=1;jettySize=auto;html=1;entryX=0.5;entryY=1;entryDx=0;entryDy=0;startArrow=classic;startFill=1;" edge="1" parent="1" source="YdVehg9gXkAnftPKYYEg-36" target="YdVehg9gXkAnftPKYYEg-3">
          <mxGeometry relative="1" as="geometry" />
        </mxCell>
        <mxCell id="7QEbIwmtzFfhTlJ7Jh2c-2" style="edgeStyle=orthogonalEdgeStyle;rounded=0;orthogonalLoop=1;jettySize=auto;html=1;entryX=0.5;entryY=1;entryDx=0;entryDy=0;startArrow=classic;startFill=1;" edge="1" parent="1" source="YdVehg9gXkAnftPKYYEg-36" target="YdVehg9gXkAnftPKYYEg-2">
          <mxGeometry relative="1" as="geometry" />
        </mxCell>
        <mxCell id="YdVehg9gXkAnftPKYYEg-36" value="Main Controller" style="rounded=0;whiteSpace=wrap;html=1;" parent="1" vertex="1">
          <mxGeometry x="320" y="330" width="130" height="60" as="geometry" />
        </mxCell>
        <mxCell id="7QEbIwmtzFfhTlJ7Jh2c-6" value="&lt;i&gt;door_is_open(d)&lt;/i&gt;" style="text;html=1;strokeColor=none;fillColor=none;align=center;verticalAlign=middle;whiteSpace=wrap;rounded=0;" vertex="1" parent="1">
          <mxGeometry x="-280" y="490" width="40" height="20" as="geometry" />
        </mxCell>
        <mxCell id="7QEbIwmtzFfhTlJ7Jh2c-15" value="start_system" style="edgeStyle=orthogonalEdgeStyle;rounded=0;orthogonalLoop=1;jettySize=auto;html=1;entryX=0.5;entryY=1;entryDx=0;entryDy=0;startArrow=none;startFill=0;fontStyle=2" edge="1" parent="1" source="7QEbIwmtzFfhTlJ7Jh2c-8" target="YdVehg9gXkAnftPKYYEg-36">
          <mxGeometry x="-0.8706" y="-36" relative="1" as="geometry">
            <Array as="points">
              <mxPoint x="474" y="570" />
              <mxPoint x="385" y="570" />
            </Array>
            <mxPoint as="offset" />
          </mxGeometry>
        </mxCell>
        <mxCell id="7QEbIwmtzFfhTlJ7Jh2c-8" value="Start button" style="rounded=0;whiteSpace=wrap;html=1;" vertex="1" parent="1">
          <mxGeometry x="434" y="610" width="120" height="60" as="geometry" />
        </mxCell>
        <mxCell id="7QEbIwmtzFfhTlJ7Jh2c-14" value="&lt;i&gt;stop_system&lt;/i&gt;" style="edgeStyle=orthogonalEdgeStyle;rounded=0;orthogonalLoop=1;jettySize=auto;html=1;entryX=0.5;entryY=1;entryDx=0;entryDy=0;startArrow=none;startFill=0;" edge="1" parent="1" source="7QEbIwmtzFfhTlJ7Jh2c-9" target="YdVehg9gXkAnftPKYYEg-36">
          <mxGeometry x="-0.9101" y="-40" relative="1" as="geometry">
            <Array as="points">
              <mxPoint x="610" y="570" />
              <mxPoint x="385" y="570" />
            </Array>
            <mxPoint as="offset" />
          </mxGeometry>
        </mxCell>
        <mxCell id="7QEbIwmtzFfhTlJ7Jh2c-9" value="Stop Button" style="rounded=0;whiteSpace=wrap;html=1;" vertex="1" parent="1">
          <mxGeometry x="570" y="610" width="120" height="60" as="geometry" />
        </mxCell>
        <mxCell id="7QEbIwmtzFfhTlJ7Jh2c-17" value="&lt;i&gt;close_door(d&lt;/i&gt;)" style="text;html=1;align=center;verticalAlign=middle;resizable=0;points=[];autosize=1;strokeColor=none;fillColor=none;" vertex="1" parent="1">
          <mxGeometry x="70" y="400" width="90" height="20" as="geometry" />
        </mxCell>
        <mxCell id="7QEbIwmtzFfhTlJ7Jh2c-18" value="&lt;i&gt;door_is_closed(d)&lt;/i&gt;" style="text;html=1;strokeColor=none;fillColor=none;align=center;verticalAlign=middle;whiteSpace=wrap;rounded=0;" vertex="1" parent="1">
          <mxGeometry x="-280" y="470" width="40" height="20" as="geometry" />
        </mxCell>
        <mxCell id="7QEbIwmtzFfhTlJ7Jh2c-26" value="&lt;i&gt;robot_moves(r, l_a, l_b)&lt;/i&gt;" style="text;html=1;align=center;verticalAlign=middle;resizable=0;points=[];autosize=1;strokeColor=none;fillColor=none;" vertex="1" parent="1">
          <mxGeometry x="240" y="210" width="140" height="20" as="geometry" />
        </mxCell>
        <mxCell id="7QEbIwmtzFfhTlJ7Jh2c-27" value="&lt;i&gt;robot_is_ready_to_move(r)&lt;/i&gt;" style="text;html=1;align=center;verticalAlign=middle;resizable=0;points=[];autosize=1;strokeColor=none;fillColor=none;" vertex="1" parent="1">
          <mxGeometry x="-50" y="180" width="160" height="20" as="geometry" />
        </mxCell>
        <mxCell id="7QEbIwmtzFfhTlJ7Jh2c-48" value="&lt;i&gt;chuck_swap_done&lt;/i&gt;" style="text;html=1;align=center;verticalAlign=middle;resizable=0;points=[];autosize=1;strokeColor=none;fillColor=none;" vertex="1" parent="1">
          <mxGeometry x="544" y="210" width="120" height="20" as="geometry" />
        </mxCell>
        <mxCell id="7QEbIwmtzFfhTlJ7Jh2c-49" value="Door 1" style="rounded=0;whiteSpace=wrap;html=1;" vertex="1" parent="1">
          <mxGeometry x="-150" y="600" width="130" height="60" as="geometry" />
        </mxCell>
        <mxCell id="7QEbIwmtzFfhTlJ7Jh2c-50" value="Door 1" style="rounded=0;whiteSpace=wrap;html=1;" vertex="1" parent="1">
          <mxGeometry x="-340" y="620" width="130" height="60" as="geometry" />
        </mxCell>
        <mxCell id="7QEbIwmtzFfhTlJ7Jh2c-51" value="Door 1" style="rounded=0;whiteSpace=wrap;html=1;" vertex="1" parent="1">
          <mxGeometry x="-190" y="680" width="130" height="60" as="geometry" />
        </mxCell>
      </root>
    </mxGraphModel>
  </diagram>
</mxfile>
